<svg width="16" height="16" viewBox="0 0 16 16" fill="none" xmlns="http://www.w3.org/2000/svg">
<path d="M6.12447 6.08545C5.08949 6.08545 4.24741 6.94489 4.24741 8.00128C4.24741 9.05767 5.08946 9.91707 6.12447 9.91707C7.15948 9.91707 8.0015 9.05763 8.0015 8.00128C8.0015 6.94492 7.15952 6.08545 6.12447 6.08545Z" fill="#8C8C8C"/>
<path d="M6.12429 3.11133C3.48253 3.11133 1.33334 5.30497 1.33334 8.00125C1.33334 10.6975 3.48253 12.8911 6.12429 12.8911C8.76601 12.8911 10.9152 10.6976 10.9152 8.00125C10.9152 5.30494 8.76601 3.11133 6.12429 3.11133ZM6.12429 10.9688C4.52106 10.9688 3.21668 9.63756 3.21668 8.00121C3.21668 6.36484 4.52102 5.03356 6.12429 5.03356C7.72756 5.03356 9.03187 6.36484 9.03187 8.00121C9.03187 9.63756 7.72756 10.9688 6.12429 10.9688Z" fill="#8C8C8C"/>
<path d="M14.173 3.4733C13.8208 2.96053 13.3148 2.6665 12.7847 2.6665C12.2546 2.6665 11.7486 2.96057 11.3965 3.47326C11.0782 3.93672 10.9029 4.54357 10.9029 5.18205C10.9029 5.82053 11.0782 6.42742 11.3965 6.89084C11.6317 7.23327 11.9357 7.47751 12.2695 7.60243V12.3654C12.2695 12.6558 12.5002 12.8913 12.7848 12.8913C13.0693 12.8913 13.3 12.6558 13.3 12.3654V7.60243C13.6338 7.47754 13.9378 7.2333 14.173 6.89087C14.4914 6.42742 14.6667 5.82057 14.6667 5.18208C14.6667 4.5436 14.4913 3.93672 14.173 3.4733Z" fill="#8C8C8C"/>
</svg>
