<svg width="16" height="16" viewBox="0 0 16 16" fill="none" xmlns="http://www.w3.org/2000/svg">
<path d="M8.77441 0H7.22566C6.51525 0 5.93735 0.577937 5.93735 1.28831V2.815H6.8916V1.28831C6.8916 1.10409 7.04144 0.954281 7.22563 0.954281H8.77438C8.9586 0.954281 9.10844 1.10413 9.10844 1.28831V2.815H10.0627V1.28831C10.0627 0.577937 9.48479 0 8.77441 0Z" fill="#8C8C8C"/>
<path d="M10.9584 3.76953H5.04154C4.5452 3.76953 4.14139 4.17334 4.14139 4.66969V12.9411C4.14139 13.4374 4.5452 13.8413 5.04154 13.8413H10.9584C11.4548 13.8413 11.8586 13.4374 11.8586 12.9411V4.66972C11.8586 4.17334 11.4548 3.76953 10.9584 3.76953Z" fill="#8C8C8C"/>
<path d="M5.04158 14.7953C5.00558 14.7953 4.96989 14.794 4.93436 14.792V15.5229C4.93436 15.7864 5.14798 16 5.41148 16C5.67498 16 5.88861 15.7864 5.88861 15.5229V14.7953H5.04158Z" fill="#8C8C8C"/>
<path d="M10.9585 14.7953H10.1114V15.5229C10.1114 15.7864 10.325 16 10.5885 16C10.852 16 11.0656 15.7864 11.0656 15.5229V14.792C11.0301 14.7941 10.9945 14.7953 10.9585 14.7953Z" fill="#8C8C8C"/>
</svg>
