<svg width="16" height="16" viewBox="0 0 16 16" fill="none" xmlns="http://www.w3.org/2000/svg">
<g clip-path="url(#clip0_6029_3580)">
<path d="M2.684 3.31121C3.40801 3.81521 4.404 3.63922 4.908 2.91922C5.41601 2.19521 5.23999 1.19921 4.51602 0.691238C3.79201 0.183226 2.79601 0.359213 2.288 1.08322C1.784 1.8072 1.96002 2.8032 2.684 3.31121Z" fill="#8C8C8C"/>
<path d="M3.17201 11.9674L1.60001 4.39941H0L1.596 12.2034C1.89199 14.1554 3.57199 15.5994 5.54801 15.5994H11.2V13.9994H5.544C4.36001 13.9994 3.35201 13.1354 3.17201 11.9674Z" fill="#8C8C8C"/>
<path d="M11.384 10.7991H7.48001L6.66 7.51909C7.92 8.23111 9.28399 8.75509 10.78 8.49511V6.79512C9.47603 7.03913 8.028 6.57511 7.02803 5.79912L5.71204 4.77511C5.53204 4.63512 5.32005 4.53511 5.10004 4.4711C4.84804 4.3991 4.57605 4.37911 4.30804 4.4231L4.28805 4.42711C3.30807 4.59912 2.65204 5.53111 2.82405 6.5111L3.90807 11.2471C4.12407 12.3791 5.11208 13.1991 6.26408 13.1991H11.7441L14.8 15.5991L16 14.3991L11.384 10.7991Z" fill="#8C8C8C"/>
</g>
<defs>
<clipPath id="clip0_6029_3580">
<rect width="16" height="16" fill="white"/>
</clipPath>
</defs>
</svg>
